<svg xmlns="http://www.w3.org/2000/svg" viewBox="0 0 93 293"><g transform="translate(0,293) scale(0.1,-0.1)"><path d="M430 2840c-58-30-72-65-66-167 3-48 10-89 16-91 5-2 10 -14 10-27 0-13 5-27 10-30 6-3 10-16 10-28 0-29 51-61 81-52 36 12 97 74 105 107 3 18 13 38 20 46 16 15 19 82 4 82-5 0-10 23-10 51 0 64-11 84-60 109-48 25-75 25-120 0z"/><path d="M575 2391c-16-39-31-71-35-71-15 0-40 49-33 66 9 23-25 48 -44 33-15-13-18-49-4-49 10 0-5-58-20-74-7-8-49 111-49 140 0 17-4 17-28 4-9-5-58-24-109-41l-91-31-21-56c-12-32-28-88-36 -127-50-232-65-310-60-324 2-9 5-50 6-91 1-43 9-98 20-130 11-30 19-73 19-96 0-26 5-44 13-47 26-10 37-93 47-357 10-269 26-406 60 -517 10-34 27-124 36-201 20-157 15-185-38-216-41-25-68-53-68 -71 0-12 12-15 53-14 85 1 125 18 150 64 15 27 31 41 47 43 14 2 29 8 35 13 32 32 35-18 6-111-15-46-14-56 5-74 24-24 78-20 112 9 29 24 30 28 30 113-1 72 5 102 31 176 43 123 55 219 56 451 1 110 5 235 9 278 8 78 9 78 45 93 44 18 71 62 71 117 0 31 5 45 20 54 20 13 21 19 40 173 15 121 16 479 1 590-6 46-11 108-11 136 0 36-5 55-17 66-21 18-152 98-161 98-3 0-18 12-33 26l-27 25-27-70zm-361-468c-3-49-10-113-16-143l-11 -55-10 39c-6 26-6 50 2 76 6 20 11 50 11 66 0 29 18 104 25 104 2 0 1-39 -1-87zm503-180c1-74 1-134-2-132-10 11-26 196-20 236 11 75 19 39 22-104zm-271-550c16-38 45-247 47-343 2-100-17-325-39-460l-6 -35-16 30c-21 40-51 179-52 235 0 25-7 81-16 125-22 114-21 235 4 320 25 87 53 165 59 165 2 0 11-17 19-37z"/></g></svg>
