<svg xmlns="http://www.w3.org/2000/svg" viewBox="0 0 450 950"><g transform="translate(0,950) scale(0.1,-0.1)"><path d="M2120 8515c-59-13-138-36-184-54-21-9-26-14-17-24 10 -13-8-32-93-99-20-17-20-17-2-31 16-12 17-15 3-20-34-13-30 -139 9-335 5-25 3-32-7-30-27 6-35-85-14-165 21-83 29-97 60-97 19 0 24-10 40-82 10-46 19-93 20-105 2-12 13-32 24-44 12-13 21-26 21-31 0-4 30-22 68-39 109-51 173-83 232-116 97-53 96-53 130 19 17 35 33 79 36 98 4 22 22 51 50 80 35 37 46 57 58 110 19 83 38 262 31 282-3 8 -1 52 5 97 5 44 15 117 20 162l11 81-36 39c-27 30-34 45-29 64 4 17-2 34-19 57-14 18-36 53-50 78-28 52-85 86-181 106-74 16-114 16-186 -1z"/><path d="M1839 7326c-40-54-53-65-92-74-27-7-65-29-95-54-46-39 -167-98-201-98-8 0-36-17-63-37-39-30-50-45-55-75-3-21-10 -41-14-44-20-12-5-273 30-512 10-68 104-276 175-386 32-50 36-64 36-121 0-60 2-67 31-92 45-41 53-60 35-87-9-15-14-47-14-87 0 -35-1-68-3-74-1-5 4-23 11-40 7-16 14-59 16-95 1-36 8-87 14 -115 14-57 14-347 0-394-5-17-4-61 1-103 5-40 9-118 8-173-2-141 -1-184 6-316 6-109 8-117 30-127 20-9 24-21 30-79 3-37 25-144 48 -238 30-125 43-201 48-285 3-63 20-189 38-280 18-91 30-178 27-195 -10-53-27-216-35-345-8-112-7-128 9-155 18-30 18-31-12-100 l-31-70-3-270c-11-709-11-717-32-840-11-66-23-156-27-200-6 -76-4-87 37-210l44-130-10-145c-6-99-6-173 2-232 10-84 12-89 77-180 37-51 68-94 69-95 1-1 51 4 112 12 60 8 117 15 126 15 29 0 44 25 62 108l19 80-28 158c-15 88-31 180-36 206-4 26-12 56-18 67-14 25 -14 31 2 31 6 1 30 22 52 47l40 47 0 107c0 59 2 109 5 112 3 3 48-3 100 -13 101-19 110-17 110 28 0 12 2 22 5 22 10 0 161-119 190-149 16-17 62 -47 102-66 70-33 79-35 184-35 121 0 202 16 279 55 64 32 74 46 58 80-15 34-174 115-224 115-26 0-39 8-61 35-15 20-62 57-103 84-122 80-128 89-146 222-31 238-30 260 11 394 20 66 41 145 46 175 5 30 14 83 19 116 6 34 10 108 10 165 0 78 7 128 25 199 14 52 25 109 25 126 0 17 14 64 31 105 23 56 33 99 40 179 9 103 21 191 39 280 38 194 55 313 91 635 6 50 17 144 25 210 8 66 17 140 20 165 3 25 12 68 20 96 13 45 13 73-1 230-20 234-24 273-40 374-8 47-19 121-25 165-7 44-18 116-26 160-7 44-16 106-20 138-6 57 -17 77-29 57-12-19-25-10-20 13 3 12 9 86 13 164 5 78 11 145 14 148 11 11 36-7 33-23-2-9-6-57-9-107l-5-90 34 40c27 31 34 49 35 81 0 45 15 59 58 55 30-3 299 76 337 100 17 9 43 31 58 47 27 28 30 39 38 139 5 70 5 129-2 169-12 69-14 73-51 97-17 11-28 26-28 40 0 16-12 31-37 47-58 37-203 199-203 227 0 17-6 23-23 23-29 0-47 18-47 46 0 30-10 55-20 49-10-6-104 120-123 167-8 20-27 44-40 53-14 9-28 26-31 38-4 12 -23 41-44 64l-37 43-215 54c-159 41-219 61-232 76-9 11-18 20-21 20 -2 0 1-26 8-57 102-460 105-483 45-370-35 68-39 81-33 126 5 48 4 54 -36 106-23 31-54 60-67 66-50 18-62 12-94-51-17-33-34-60-38-60 -4 0-23 14-42 31-76 70-172 150-227 189-32 23-74 59-93 81l-35 39 -46-64zm616-487c20-39 35-73 32-75-3-3-19 23-37 58-18 35-37 69 -42 76-7 8-7 12 0 12 5 0 26-32 47-71zm132-106c-3-10-5-2-5 17 0 19 2 27 5 18 2-10 2-26 0-35zm10-85c-3-8-6-5-6 6-1 11 2 17 5 13 3 -3 4-12 1-19zm-30-410c33-36 58-103 69-185 6-46 4-52-15-63-12 -6-39-10-59-8l-37 3-5 75c-5 72-33 148-60 165-16 10-12 33 8 38 45 12 69 6 99-25z"/></g></svg>
