<svg xmlns="http://www.w3.org/2000/svg" viewBox="0 0 512 512"><g transform="translate(0,512) scale(0.1,-0.1)"><path d="M2555 4901c-16-4-39-12-50-18-11-6-38-15-60-20-69-14 -97-75-117-253-9-81-8-141 1-262 9-110 10-162 2-176-13-24-90 -57-154-66-54-8-71-27-83-90-4-22-15-54-25-71-11-17-22-54 -25-81-4-27-15-65-24-84-24-48-26-63-49-250-11-91-18-182 -14-204 8-48 72-175 151-297l60-94-33-132c-33-131-33-135-24 -262 9-131 17-194 44-363 11-72 13-112 5-178-18-158-9-303 20-306 8-1 48-8 88-14 66-11 73-14 69-32-7-24 8-230 24-338 6-41 36-158 66-260 50-171 54-191 50-265-3-54-15-113-37-180-18-55-39-126 -47-158-13-54-12-61 5-90 36-63 133-59 173 7 11 19 19 50 19 78 0 26 5 50 12 54 8 5 10-21 5-105-4-66-3-120 3-131 5-10 28-25 50-34 52 -21 109-8 141 32 23 29 23 16-2 267-5 55-10 114-10 130 1 17 1 64 1 105 1 46 12 124 30 200 53 231 63 313 64 512l1 187 27 6c15 4 29 14 32 23 15 49 48 416 66 722l11 185 30 23c18 14 29 33 29 47 0 14-18 111-40 217-22 106 -40 205-40 220 0 16 20 57 49 100 33 49 50 83 49 103 0 17 9 72 21 123 11 51 23 135 26 185 4 51 11 125 16 165 9 60 8 77-5 104-9 17-16 46-16 63 0 18 -11 58-25 88-22 51-28 57-67 68-57 15-129 52-153 79-17 19-20 42-27 193-10 254-13 279-43 346-28 62-112 153-157 170-40 15-82 19-113 12z m8-820c9-7 17-21 17-30 0-58 108-309 123-285 17 28 17 86 1 137l-17 56 36 113c20 62 39 129 43 148l7 35 18-40c10-22 33-77 50-123 17-45 42-96 56-112 31-38 26-38-37 2-29 18-54 28-59 22-4-5-22-79-39 -164-17-85-39-180-48-210l-17-55-17 40c-10 22-46 125-81 228-58 170-66 187-84 182-11-3-34-8-52-12l-31-5 5 103c4 75 10 109 21 122 15 17 18 13 52-60 20-43 44-84 53-92zm-308-669c9-108-8-203-31 -180-8 8-20 34-27 58-12 40-11 50 7 90 14 33 19 65 18 120-1 74-1 75 13 38 7-20 17-77 20-126zm386-1792c4-19 3-96-3-172-9-113-9-164 5-305 18-173 20-286 7-338-8-36-14-26-35 65-11 52-13 108-9 275 5 145 3 233-6 285-7 41-14 110-17 153l-5 79 28-4c23-2 30-9 35-38z"/></g></svg>
