<svg xmlns="http://www.w3.org/2000/svg" viewBox="0 0 640 1280"><g transform="translate(0,1280) scale(0.1,-0.1)"><path d="M3304 12791c-16-4-62-25-100-46-63-35-74-45-102-100-21 -40-32-75-32-103 0-40-5-46-114-154-95-95-120-126-152-192 l-39-80-3-257c-3-255-3-259 27-386 20-87 49-173 90-267l61-139 6 -131 6-131-49-75c-27-41-56-80-64-87-8-6-141-57-295-112-214 -77-305-104-380-115-87-13-102-19-122-43-55-68-158-271-260 -517l-111-266 19-44c27-65 12-153-61-351-50-137-69-210-130-505 -65-312-71-353-67-435 7-160 67-248 210-304 479-190 534-208 770 -246 57-9 57-33 3-316l-46-244-21-430-20-430 20-300c17-261 18 -322 8-470-11-154-10-195 11-445 22-256 23-291 12-503-10-180-9 -249 0-325l13-97-101-609-101-609-34-766-35-766-43-107c-43 -105-49-113-279-395-232-284-236-289-248-352-15-77-41-146-76 -201-40-64-29-154 24-187 22-14 434 93 519 134l57 28 70 156c65 143 82 171 226 366 86 115 164 224 173 241 20 39 20 104 0 285-8 78-14 158-11 177 11 98 195 731 279 960l90 245 33 295 34 295 68 158c64 150 70 160 111 184 59 35 154 63 213 63 27 0 49-1 49-2 0-2-26-181-59-398l-58-395 19-240c19-223 19-268 8-635-9-293-17-427-31-520-11-68-21-125 -22-125-1-1-18-13-38-28-49-37-96-154-102-259-5-78-5-78 83 -320 85-236 88-248 110-413 28-220 12-204 307-320 237-93 258-97 289 -50 14 22 15 45 6 207-6 110-16 200-24 225-8 22-40 81-71 130-54 87 -56 91-97 285-39 186-41 204-38 330 4 119 13 177 87 533 265 1288 285 1411 296 1800 3 116 8 237 11 270l5 60 107 39c59 21 110 42 114 45 10 9 153 1006 167 1161 44 510 113 1274 122 1362 9 93 8 126-11 260-29 217-74 445 -125 646-36 138-45 191-45 257l0 84 207 186c115 103 221 201 236 219 43 47 74 105 90 166 13 50 13 67-9 195-19 117-108 477-231 937l-26 96 20 39 19 38-27 135c-38 186-142 471-209 572-49 74-51 75-107 87-31 6-66 11 -78 11-13 0-110 36-216 81-123 51-240 91-319 111-102 25-131 36-157 61-61 58-55 155 18 273 145 235 249 549 274 822 17 176 10 259-31 382-21 61-42 95-121 195-53 66-100 125-104 131-5 6-17 56-28 113-23 117-47 164-101 191-42 21-167 34-216 21z m-979-3997c43-141 67-244 100-419 14-77 28-148 30-158 6-28-38-44-78-28-18 7-57 21-87 30-41 13 -227 117-317 176-2 1 4 39 13 84 15 80 192 570 216 599 14 17 73-119 123 -284z m1971 159c6-10 50-95 97-188 82-163 86-174 93-256 6-85 6-88 -29-161-53-110-171-231-197-201-13 15-52 263-47 296 4 18 2 91-2 162-7 103-5 140 6 180 46 158 55 185 61 185 4 0 12-8 18-17z"/></g></svg>
