<svg xmlns="http://www.w3.org/2000/svg" viewBox="0 0 51.123 51.123">
  <path d="M45.123,0H6C2.691,0,0,2.691,0,6v39.123c0,3.309,2.691,6,6,6h39.123c3.309,0,6-2.691,6-6V6C51.123,2.691,48.431,0,45.123,0zM49.123,45.123c0,2.206-1.794,4-4,4H6c-2.206,0-4-1.794-4-4V6c0-2.206,1.794-4,4-4h39.123c2.206,0,4,1.794,4,4V45.123zM36.791,15.746l-9.815,9.815l9.815,9.815c0.391,0.391,0.391,1.023,0,1.414c-0.195,0.195-0.451,0.293-0.707,0.293s-0.512-0.098-0.707-0.293l-9.815-9.815l-9.815,9.815c-0.195,0.195-0.451,0.293-0.707,0.293s-0.512-0.098-0.707-0.293c-0.391-0.391-0.391-1.023,0-1.414l9.815-9.815l-9.815-9.815c-0.391-0.391-0.391-1.023,0-1.414s1.023-0.391,1.414,0l9.815,9.815l9.815-9.815c0.391-0.391,1.023-0.391,1.414,0S37.181,15.355,36.791,15.746z"></path>
</svg>
