<svg xmlns="http://www.w3.org/2000/svg" viewBox="0 0 456 456"><rect x="228" y="40" width="16" height="16"/><rect x="260" y="40" width="112" height="16"/><rect x="228" y="72" width="144" height="16"/><rect x="228" y="104" width="144" height="16"/><rect x="228" y="136" width="144" height="16"/><rect x="228" y="168" width="144" height="16"/><path d="M428,168h-16V8c0-4.418-3.582-8-8-8H196c-4.418,0-8,3.582-8,8v160h-32v-4.688c-0.022-19.493-15.819-35.29-35.312-35.312H79.312c-19.493,0.022-35.29,15.819-35.312,35.312V168H28c-13.255,0-24,10.745-24,24v240c0,13.255,10.745,24,24,24h400c13.255,0,24-10.745,24-24V192C452,178.745,441.255,168,428,168z M204,16h192v192H204V16z M60,163.312c0.013-10.66,8.652-19.299,19.312-19.312h41.376c10.66,0.013,19.299,8.652,19.312,19.312v41.376c0.013,5.124-2.024,10.041-5.656,13.656c-6.645,6.607-10.37,15.598-10.344,24.968v57.376c-0.026,9.37,3.699,18.361,10.344,24.968c3.632,3.615,5.669,8.532,5.656,13.656v41.376c-0.013,10.66-8.652,19.299-19.312,19.312H79.312c-10.66-0.013-19.299-8.652-19.312-19.312v-41.376c-0.013-5.124,2.024-10.041,5.656-13.656c6.645-6.607,10.37-15.598,10.344-24.968v-57.376c0.026-9.37-3.699-18.361-10.344-24.968c-3.632-3.615-5.669-8.532-5.656-13.656V163.312z M436,432c0,4.418-3.582,8-8,8H28c-4.418,0-8-3.582-8-8V192c0-4.418,3.582-8,8-8h16v20.688c-0.026,9.37,3.699,18.361,10.344,24.968c3.632,3.615,5.669,8.532,5.656,13.656v57.376c0.013,5.124-2.024,10.041-5.656,13.656c-6.645,6.607-10.37,15.598-10.344,24.968v41.376c0.022,19.493,15.819,35.29,35.312,35.312h41.376c19.493-0.022,35.29-15.819,35.312-35.312v-41.376c0.026-9.37-3.699-18.361-10.344-24.968c-3.632-3.615-5.669-8.532-5.656-13.656v-57.376c-0.013-5.124,2.024-10.041,5.656-13.656c6.645-6.607,10.37-15.598,10.344-24.968V184h32v32c0,4.418,3.582,8,8,8h208c4.418,0,8-3.582,8-8v-32h16c4.418,0,8,3.582,8,8V432z"/><path d="M388,248H212c-4.418,0-8,3.582-8,8v48c0,4.418,3.582,8,8,8h176c4.418,0,8-3.582,8-8v-48C396,251.582,392.418,248,388,248zM380,296H220v-32h160V296z"/><rect x="220" y="336" width="16" height="16"/><rect x="220" y="368" width="16" height="16"/><rect x="220" y="400" width="16" height="16"/><rect x="252" y="336" width="16" height="16"/><rect x="252" y="368" width="16" height="16"/><rect x="252" y="400" width="16" height="16"/><rect x="284" y="336" width="16" height="16"/><rect x="284" y="368" width="16" height="16"/><rect x="284" y="400" width="16" height="16"/><path d="M372,336h-48c-4.418,0-8,3.582-8,8v32c0,4.418,3.582,8,8,8h48c4.418,0,8-3.582,8-8v-32C380,339.582,376.418,336,372,336zM364,368h-32v-16h32V368z"/><rect x="316" y="400" width="64" height="16"/></svg>
