<svg xmlns="http://www.w3.org/2000/svg" viewBox="0 0 1600 1600">
  <g transform="translate(0,1600) scale(0.1,-0.1)" stroke="none"><path d="M10221 15868c-69-297-204-599-422-940-85-134-196-292-510 -728-86-118-197-278-248-354-506-757-736-1394-848-2351-22-188 -25-728-5-875 80-593 308-1001 698-1253 159-103 351-184 563-237 236 -59 454-84 866-100 425-16 532-33 576-88 25-32 22-69-17-296-54 -311-139-577-259-817-52-103-115-208-156-260-28-35-31-36-111 -42-307-20-718-292-878-582-19-33-34-61-35-62-1-1-35 31-76 71-59 58-95 83-170 119-146 71-263 98-449 104-180 6-288-9-422-57 -226-82-415-257-491-453-22-58-22-59-57-53-255 44-440 28-632 -54-226-97-415-293-447-467-9-45-8-47 38-96 72-78 224-211 347 -303 630-473 1472-712 2694-764 129-5 312-10 405-10 94 0 227-7 296 -15 264-31 519-121 656-231 23-19 44-34 48-34 7 0 2535 1459 2549 1471 23 21-84 246-178 373-194 262-481 439-790 487-122 19-342 6-476-29 -128-33-259-84-367-143-79-43-83-44-83-28 0 19-86 184-128 247 -101 147-243 268-419 354-57 28-103 53-103 57 0 4 12 36 26 71 45 111 133 378 179 544 148 537 229 1079 269 1811 9 149 21 374 28 500 7 129 13 457 13 750 0 430-3 550-18 695-74 719-244 1348-616 2278-45 111-81 205-81 209 0 18 323-460 437-647 257-423 425-819 537-1265 179-715 219-1652 126-2950-11-154-23-319-27-367l-6-86 49-9c27-4 105-8 174-7 306 2 578 130 845 399 598 599 924 1771 764 2748-49 298-139 577-279 859-188 378-420 695-765 1047-438 447-812 737-1891 1468-292 197-447 307-582 413-57 44-106 80-110 80-4 0-18-46-31-102z"/><path d="M3695 6724c-16-2-72-9-123-15-301-35-605-129-1122-346 -552-233-2372-1052-2402-1081-7-7 1693-3777 1712-3796 5-5 198 113 447 272 659 421 715 452 900 508 77 24 105 27 228 27 121 0 154-4 239-27 201-54 304-104 1356-651 1680-874 2104-1089 2316-1172 417-164 788 -223 1126-178 294 39 566 147 928 368 85 52 250 152 365 222 268 163 456 281 835 525 1412 909 4249 2788 4537 3004 568 427 747 792 563 1145-101 193-291 342-515 402-119 33-376 33-530 1-209-44-470-144-705-269-58-31 -510-298-1005-593-1088-649-1164-694-1287-760-54-28-98-53-98 -53 0-1 9-31 21-67 24-79 37-273 27-410-29-380-260-685-673-885 -188-92-361-146-625-197-115-22-119-22-1590-25-1290-3-1487-2 -1578 12-477 71-988 330-1517 771-152 127-359 327-325 315 14-5 72-27 130-49 548-209 1112-361 1574-425 160-22 168-22 1596-22 1536 0 1487 -1 1726 51 261 57 442 142 560 263 108 110 143 245 113 431-45 283-261 393 -869 440-74 6-376 15-670 20-579 9-697 18-966 71-402 78-863 239 -1291 450-166 82-206 107-450 286-825 603-1166 836-1563 1065-391 226 -689 333-1020 368-89 9-309 11-375 4z"/></g>
</svg>
