<?xml version="1.0" encoding="UTF-8"?>
<svg xmlns="http://www.w3.org/2000/svg" style="display: none;">
  <symbol id="twitter" viewBox="0 0 256 209">
    <path d="M256,25.4500259 C246.580841,29.6272672 236.458451,32.4504868 225.834156,33.7202333 C236.678503,27.2198053 245.00583,16.9269929 248.927437,4.66307685 C238.779765,10.6812633 227.539325,15.0523376 215.57599,17.408298 C205.994835,7.2006971 192.34506,0.822 177.239197,0.822 C148.232605,0.822 124.716076,24.3375931 124.716076,53.3423116 C124.716076,57.4586875 125.181462,61.4673784 126.076652,65.3112644 C82.4258385,63.1210453 43.7257252,42.211429 17.821398,10.4359288 C13.3005011,18.1929938 10.710443,27.2151234 10.710443,36.8402889 C10.710443,55.061526 19.9835254,71.1374907 34.0762135,80.5557137 C25.4660961,80.2832239 17.3681846,77.9207088 10.2862577,73.9869292 C10.2825122,74.2060448 10.2825122,74.4260967 10.2825122,74.647085 C10.2825122,100.094453 28.3867003,121.322443 52.413563,126.14673 C48.0059695,127.347184 43.3661509,127.988612 38.5755734,127.988612 C35.1914554,127.988612 31.9009766,127.659938 28.694773,127.046602 C35.3777973,147.913145 54.7742053,163.097665 77.7569918,163.52185 C59.7820257,177.607983 37.1354036,186.004604 12.5289147,186.004604 C8.28987161,186.004604 4.10888474,185.75646 0,185.271409 C23.2431033,200.173139 50.8507261,208.867532 80.5109185,208.867532 C177.116529,208.867532 229.943977,128.836982 229.943977,59.4326002 C229.943977,57.1552968 229.893412,54.8901664 229.792282,52.6381454 C240.053257,45.2331635 248.958338,35.9825545 256,25.4500259"></path>
  </symbol>
  <symbol id="facebook" viewBox="0 0 24 24">
    <path d="M9 8h-3v4h3v12h5v-12h3.642l.358-4h-4v-1.667c0-.955.192-1.333 1.115-1.333h2.885v-5h-3.808c-3.596 0-5.192 1.583-5.192 4.615v3.385z"/>
  </symbol>
  <symbol id="facebook-square" viewBox="0 0 24 24">
    <path d="M22.675 0h-21.35c-.732 0-1.325.593-1.325 1.325v21.351c0 .731.593 1.324 1.325 1.324h11.495v-9.294h-3.128v-3.622h3.128v-2.671c0-3.1 1.893-4.788 4.659-4.788 1.325 0 2.463.099 2.795.143v3.24l-1.918.001c-1.504 0-1.795.715-1.795 1.763v2.313h3.587l-.467 3.622h-3.12v9.293h6.116c.73 0 1.323-.593 1.323-1.325v-21.35c0-.732-.593-1.325-1.325-1.325z"/>
  </symbol>
  <symbol id="linkedin" viewBox="0 5 1036 990">
    <path d="M0 120c0-33.334 11.667-60.834 35-82.5C58.333 15.833 88.667 5 126 5c36.667 0 66.333 10.666 89 32 23.333 22 35 50.666 35 86 0 32-11.333 58.666-34 80-23.333 22-54 33-92 33h-1c-36.667 0-66.333-11-89-33S0 153.333 0 120zm13 875V327h222v668H13zm345 0h222V622c0-23.334 2.667-41.334 8-54 9.333-22.667 23.5-41.834 42.5-57.5 19-15.667 42.833-23.5 71.5-23.5 74.667 0 112 50.333 112 151v357h222V612c0-98.667-23.333-173.5-70-224.5S857.667 311 781 311c-86 0-153 37-201 111v2h-1l1-2v-95H358c1.333 21.333 2 87.666 2 199 0 111.333-.667 267.666-2 469z"/>
  </symbol>
  <symbol id="linkedin-square" viewBox="0 0 382 382">
    <path d="M347.445,0H34.555C15.471,0,0,15.471,0,34.555v312.889C0,366.529,15.471,382,34.555,382h312.889C366.529,382,382,366.529,382,347.444V34.555C382,15.471,366.529,0,347.445,0z M118.207,329.844c0,5.554-4.502,10.056-10.056,10.056H65.345c-5.554,0-10.056-4.502-10.056-10.056V150.403c0-5.554,4.502-10.056,10.056-10.056h42.806c5.554,0,10.056,4.502,10.056,10.056V329.844z M86.748,123.432c-22.459,0-40.666-18.207-40.666-40.666S64.289,42.1,86.748,42.1s40.666,18.207,40.666,40.666S109.208,123.432,86.748,123.432z M341.91,330.654c0,5.106-4.14,9.246-9.246,9.246H286.73c-5.106,0-9.246-4.14-9.246-9.246v-84.168c0-12.556,3.683-55.021-32.813-55.021c-28.309,0-34.051,29.066-35.204,42.11v97.079c0,5.106-4.139,9.246-9.246,9.246h-44.426c-5.106,0-9.246-4.14-9.246-9.246V149.593c0-5.106,4.14-9.246,9.246-9.246h44.426c5.106,0,9.246,4.14,9.246,9.246v15.655c10.497-15.753,26.097-27.912,59.312-27.912c73.552,0,73.131,68.716,73.131,106.472L341.91,330.654L341.91,330.654z"/>
  </symbol>
  <symbol id="instagram" viewBox="0 0 511 511.9">
    <path d="m510.949219 150.5c-1.199219-27.199219-5.597657-45.898438-11.898438-62.101562-6.5-17.199219-16.5-32.597657-29.601562-45.398438-12.800781-13-28.300781-23.101562-45.300781-29.5-16.296876-6.300781-34.898438-10.699219-62.097657-11.898438-27.402343-1.300781-36.101562-1.601562-105.601562-1.601562s-78.199219.300781-105.5 1.5c-27.199219 1.199219-45.898438 5.601562-62.097657 11.898438-17.203124 6.5-32.601562 16.5-45.402343 29.601562-13 12.800781-23.097657 28.300781-29.5 45.300781-6.300781 16.300781-10.699219 34.898438-11.898438 62.097657-1.300781 27.402343-1.601562 36.101562-1.601562 105.601562s.300781 78.199219 1.5 105.5c1.199219 27.199219 5.601562 45.898438 11.902343 62.101562 6.5 17.199219 16.597657 32.597657 29.597657 45.398438 12.800781 13 28.300781 23.101562 45.300781 29.5 16.300781 6.300781 34.898438 10.699219 62.101562 11.898438 27.296876 1.203124 36 1.5 105.5 1.5s78.199219-.296876 105.5-1.5c27.199219-1.199219 45.898438-5.597657 62.097657-11.898438 34.402343-13.300781 61.601562-40.5 74.902343-74.898438 6.296876-16.300781 10.699219-34.902343 11.898438-62.101562 1.199219-27.300781 1.5-36 1.5-105.5s-.101562-78.199219-1.300781-105.5zm-46.097657 209c-1.101562 25-5.300781 38.5-8.800781 47.5-8.601562 22.300781-26.300781 40-48.601562 48.601562-9 3.5-22.597657 7.699219-47.5 8.796876-27 1.203124-35.097657 1.5-103.398438 1.5s-76.5-.296876-103.402343-1.5c-25-1.097657-38.5-5.296876-47.5-8.796876-11.097657-4.101562-21.199219-10.601562-29.398438-19.101562-8.5-8.300781-15-18.300781-19.101562-29.398438-3.5-9-7.699219-22.601562-8.796876-47.5-1.203124-27-1.5-35.101562-1.5-103.402343s.296876-76.5 1.5-103.398438c1.097657-25 5.296876-38.5 8.796876-47.5 4.101562-11.101562 10.601562-21.199219 19.203124-29.402343 8.296876-8.5 18.296876-15 29.398438-19.097657 9-3.5 22.601562-7.699219 47.5-8.800781 27-1.199219 35.101562-1.5 103.398438-1.5 68.402343 0 76.5.300781 103.402343 1.5 25 1.101562 38.5 5.300781 47.5 8.800781 11.097657 4.097657 21.199219 10.597657 29.398438 19.097657 8.5 8.300781 15 18.300781 19.101562 29.402343 3.5 9 7.699219 22.597657 8.800781 47.5 1.199219 27 1.5 35.097657 1.5 103.398438s-.300781 76.300781-1.5 103.300781zm0 0"/><path d="m256.449219 124.5c-72.597657 0-131.5 58.898438-131.5 131.5s58.902343 131.5 131.5 131.5c72.601562 0 131.5-58.898438 131.5-131.5s-58.898438-131.5-131.5-131.5zm0 216.800781c-47.097657 0-85.300781-38.199219-85.300781-85.300781s38.203124-85.300781 85.300781-85.300781c47.101562 0 85.300781 38.199219 85.300781 85.300781s-38.199219 85.300781-85.300781 85.300781zm0 0"/><path d="m423.851562 119.300781c0 16.953125-13.746093 30.699219-30.703124 30.699219-16.953126 0-30.699219-13.746094-30.699219-30.699219 0-16.957031 13.746093-30.699219 30.699219-30.699219 16.957031 0 30.703124 13.742188 30.703124 30.699219zm0 0"/>
  </symbol>
  <symbol id="youtube" viewBox="0 0 71.412065 50">
    <g transform="scale(0.58823529,0.58823529)"><path d="M 118.9,13.3 C 117.5,8.1 113.4,4 108.2,2.6 98.7,0 60.7,0 60.7,0 60.7,0 22.7,0 13.2,2.5 8.1,3.9 3.9,8.1 2.5,13.3 0,22.8 0,42.5 0,42.5 0,42.5 0,62.3 2.5,71.7 3.9,76.9 8,81 13.2,82.4 22.8,85 60.7,85 60.7,85 c 0,0 38,0 47.5,-2.5 5.2,-1.4 9.3,-5.5 10.7,-10.7 2.5,-9.5 2.5,-29.2 2.5,-29.2 0,0 0.1,-19.8 -2.5,-29.3 z"/><polygon fill="#ffffff" points="80.2,42.5 48.6,24.3 48.6,60.7"/></g>
  </symbol>
  <symbol id="pinterest" viewBox="0 0 24 24">
    <path d="m12.326 0c-6.579.001-10.076 4.216-10.076 8.812 0 2.131 1.191 4.79 3.098 5.633.544.245.472-.054.94-1.844.037-.149.018-.278-.102-.417-2.726-3.153-.532-9.635 5.751-9.635 9.093 0 7.394 12.582 1.582 12.582-1.498 0-2.614-1.176-2.261-2.631.428-1.733 1.266-3.596 1.266-4.845 0-3.148-4.69-2.681-4.69 1.49 0 1.289.456 2.159.456 2.159s-1.509 6.096-1.789 7.235c-.474 1.928.064 5.049.111 5.318.029.148.195.195.288.073.149-.195 1.973-2.797 2.484-4.678.186-.685.949-3.465.949-3.465.503.908 1.953 1.668 3.498 1.668 4.596 0 7.918-4.04 7.918-9.053-.016-4.806-4.129-8.402-9.423-8.402z"/>
  </symbol>
  <symbol id="pinterest-square" viewBox="0 0 496 496">
    <path d="M365.2,0H130.752C57.44,0,0,57.456,0,130.784v234.448C0,438.56,57.44,496,130.752,496H365.2c73.344,0,130.8-57.44,130.8-130.784V130.784C496,57.456,438.544,0,365.2,0z M464,365.216c0,56.304-42.464,98.768-98.8,98.768H130.752C74.448,463.984,32,421.536,32,365.216V130.784C32,74.464,74.448,32,130.752,32H365.2c56.336,0,98.8,42.464,98.8,98.784V365.216z"/><path d="M255.072,101.472c-82.64,0-124.304,57.344-124.304,105.152c0,28.96,11.328,54.704,35.6,64.32c1.024,0.4,2.032,0.608,2.976,0.608c2.72,0,4.912-1.664,5.744-4.832c0.816-2.944,2.704-10.384,3.568-13.52c1.152-4.224,0.72-5.68-2.496-9.36c-7.008-8-11.504-18.352-11.504-32.992c0-42.56,32.928-80.624,85.664-80.624c46.704,0,72.368,27.616,72.368,64.496c0,48.528-22.192,89.504-55.136,89.504c-18.224,0-31.824-14.576-27.456-32.432c5.232-21.328,15.376-44.336,15.376-59.712c0-13.792-7.664-25.264-23.472-25.264c-18.624,0-33.568,18.608-33.568,43.568c0,15.872,5.552,26.64,5.552,26.64s-19.008,78.048-22.352,91.728c-6.656,27.216-1.008,60.592-0.528,63.952c0.16,1.2,1.184,1.856,2.24,1.856c0.704,0,1.424-0.288,1.888-0.896c1.728-2.144,23.872-28.624,31.408-55.088c2.16-7.488,12.24-46.256,12.24-46.256c6.048,11.152,23.712,20.96,42.512,20.96c55.904,0,93.84-49.296,93.84-115.328C365.216,147.984,321.52,101.472,255.072,101.472z"/>
  </symbol>
</svg>
