<?xml version="1.0" encoding="UTF-8"?>
<svg xmlns="http://www.w3.org/2000/svg" style="display: none;">
  <symbol id="man" viewBox="0 0 450 950">
    <g transform="translate(0,950) scale(0.1,-0.1)"><path d="M2120 8515c-59-13-138-36-184-54-21-9-26-14-17-24 10 -13-8-32-93-99-20-17-20-17-2-31 16-12 17-15 3-20-34-13-30 -139 9-335 5-25 3-32-7-30-27 6-35-85-14-165 21-83 29-97 60-97 19 0 24-10 40-82 10-46 19-93 20-105 2-12 13-32 24-44 12-13 21-26 21-31 0-4 30-22 68-39 109-51 173-83 232-116 97-53 96-53 130 19 17 35 33 79 36 98 4 22 22 51 50 80 35 37 46 57 58 110 19 83 38 262 31 282-3 8 -1 52 5 97 5 44 15 117 20 162l11 81-36 39c-27 30-34 45-29 64 4 17-2 34-19 57-14 18-36 53-50 78-28 52-85 86-181 106-74 16-114 16-186 -1z"/><path d="M1839 7326c-40-54-53-65-92-74-27-7-65-29-95-54-46-39 -167-98-201-98-8 0-36-17-63-37-39-30-50-45-55-75-3-21-10 -41-14-44-20-12-5-273 30-512 10-68 104-276 175-386 32-50 36-64 36-121 0-60 2-67 31-92 45-41 53-60 35-87-9-15-14-47-14-87 0 -35-1-68-3-74-1-5 4-23 11-40 7-16 14-59 16-95 1-36 8-87 14 -115 14-57 14-347 0-394-5-17-4-61 1-103 5-40 9-118 8-173-2-141 -1-184 6-316 6-109 8-117 30-127 20-9 24-21 30-79 3-37 25-144 48 -238 30-125 43-201 48-285 3-63 20-189 38-280 18-91 30-178 27-195 -10-53-27-216-35-345-8-112-7-128 9-155 18-30 18-31-12-100 l-31-70-3-270c-11-709-11-717-32-840-11-66-23-156-27-200-6 -76-4-87 37-210l44-130-10-145c-6-99-6-173 2-232 10-84 12-89 77-180 37-51 68-94 69-95 1-1 51 4 112 12 60 8 117 15 126 15 29 0 44 25 62 108l19 80-28 158c-15 88-31 180-36 206-4 26-12 56-18 67-14 25 -14 31 2 31 6 1 30 22 52 47l40 47 0 107c0 59 2 109 5 112 3 3 48-3 100 -13 101-19 110-17 110 28 0 12 2 22 5 22 10 0 161-119 190-149 16-17 62 -47 102-66 70-33 79-35 184-35 121 0 202 16 279 55 64 32 74 46 58 80-15 34-174 115-224 115-26 0-39 8-61 35-15 20-62 57-103 84-122 80-128 89-146 222-31 238-30 260 11 394 20 66 41 145 46 175 5 30 14 83 19 116 6 34 10 108 10 165 0 78 7 128 25 199 14 52 25 109 25 126 0 17 14 64 31 105 23 56 33 99 40 179 9 103 21 191 39 280 38 194 55 313 91 635 6 50 17 144 25 210 8 66 17 140 20 165 3 25 12 68 20 96 13 45 13 73-1 230-20 234-24 273-40 374-8 47-19 121-25 165-7 44-18 116-26 160-7 44-16 106-20 138-6 57 -17 77-29 57-12-19-25-10-20 13 3 12 9 86 13 164 5 78 11 145 14 148 11 11 36-7 33-23-2-9-6-57-9-107l-5-90 34 40c27 31 34 49 35 81 0 45 15 59 58 55 30-3 299 76 337 100 17 9 43 31 58 47 27 28 30 39 38 139 5 70 5 129-2 169-12 69-14 73-51 97-17 11-28 26-28 40 0 16-12 31-37 47-58 37-203 199-203 227 0 17-6 23-23 23-29 0-47 18-47 46 0 30-10 55-20 49-10-6-104 120-123 167-8 20-27 44-40 53-14 9-28 26-31 38-4 12 -23 41-44 64l-37 43-215 54c-159 41-219 61-232 76-9 11-18 20-21 20 -2 0 1-26 8-57 102-460 105-483 45-370-35 68-39 81-33 126 5 48 4 54 -36 106-23 31-54 60-67 66-50 18-62 12-94-51-17-33-34-60-38-60 -4 0-23 14-42 31-76 70-172 150-227 189-32 23-74 59-93 81l-35 39 -46-64zm616-487c20-39 35-73 32-75-3-3-19 23-37 58-18 35-37 69 -42 76-7 8-7 12 0 12 5 0 26-32 47-71zm132-106c-3-10-5-2-5 17 0 19 2 27 5 18 2-10 2-26 0-35zm10-85c-3-8-6-5-6 6-1 11 2 17 5 13 3 -3 4-12 1-19zm-30-410c33-36 58-103 69-185 6-46 4-52-15-63-12 -6-39-10-59-8l-37 3-5 75c-5 72-33 148-60 165-16 10-12 33 8 38 45 12 69 6 99-25z"/></g>
  </symbol>
  <symbol id="man-alt" viewBox="0 0 93 293">
    <g transform="translate(0,293) scale(0.1,-0.1)"><path d="M430 2840c-58-30-72-65-66-167 3-48 10-89 16-91 5-2 10 -14 10-27 0-13 5-27 10-30 6-3 10-16 10-28 0-29 51-61 81-52 36 12 97 74 105 107 3 18 13 38 20 46 16 15 19 82 4 82-5 0-10 23-10 51 0 64-11 84-60 109-48 25-75 25-120 0z"/><path d="M575 2391c-16-39-31-71-35-71-15 0-40 49-33 66 9 23-25 48 -44 33-15-13-18-49-4-49 10 0-5-58-20-74-7-8-49 111-49 140 0 17-4 17-28 4-9-5-58-24-109-41l-91-31-21-56c-12-32-28-88-36 -127-50-232-65-310-60-324 2-9 5-50 6-91 1-43 9-98 20-130 11-30 19-73 19-96 0-26 5-44 13-47 26-10 37-93 47-357 10-269 26-406 60 -517 10-34 27-124 36-201 20-157 15-185-38-216-41-25-68-53-68 -71 0-12 12-15 53-14 85 1 125 18 150 64 15 27 31 41 47 43 14 2 29 8 35 13 32 32 35-18 6-111-15-46-14-56 5-74 24-24 78-20 112 9 29 24 30 28 30 113-1 72 5 102 31 176 43 123 55 219 56 451 1 110 5 235 9 278 8 78 9 78 45 93 44 18 71 62 71 117 0 31 5 45 20 54 20 13 21 19 40 173 15 121 16 479 1 590-6 46-11 108-11 136 0 36-5 55-17 66-21 18-152 98-161 98-3 0-18 12-33 26l-27 25-27-70zm-361-468c-3-49-10-113-16-143l-11 -55-10 39c-6 26-6 50 2 76 6 20 11 50 11 66 0 29 18 104 25 104 2 0 1-39 -1-87zm503-180c1-74 1-134-2-132-10 11-26 196-20 236 11 75 19 39 22-104zm-271-550c16-38 45-247 47-343 2-100-17-325-39-460l-6 -35-16 30c-21 40-51 179-52 235 0 25-7 81-16 125-22 114-21 235 4 320 25 87 53 165 59 165 2 0 11-17 19-37z"/></g>
  </symbol>
  <symbol id="woman" viewBox="0 0 640 1280">
    <g transform="translate(0,1280) scale(0.1,-0.1)"><path d="M3304 12791c-16-4-62-25-100-46-63-35-74-45-102-100-21 -40-32-75-32-103 0-40-5-46-114-154-95-95-120-126-152-192 l-39-80-3-257c-3-255-3-259 27-386 20-87 49-173 90-267l61-139 6 -131 6-131-49-75c-27-41-56-80-64-87-8-6-141-57-295-112-214 -77-305-104-380-115-87-13-102-19-122-43-55-68-158-271-260 -517l-111-266 19-44c27-65 12-153-61-351-50-137-69-210-130-505 -65-312-71-353-67-435 7-160 67-248 210-304 479-190 534-208 770 -246 57-9 57-33 3-316l-46-244-21-430-20-430 20-300c17-261 18 -322 8-470-11-154-10-195 11-445 22-256 23-291 12-503-10-180-9 -249 0-325l13-97-101-609-101-609-34-766-35-766-43-107c-43 -105-49-113-279-395-232-284-236-289-248-352-15-77-41-146-76 -201-40-64-29-154 24-187 22-14 434 93 519 134l57 28 70 156c65 143 82 171 226 366 86 115 164 224 173 241 20 39 20 104 0 285-8 78-14 158-11 177 11 98 195 731 279 960l90 245 33 295 34 295 68 158c64 150 70 160 111 184 59 35 154 63 213 63 27 0 49-1 49-2 0-2-26-181-59-398l-58-395 19-240c19-223 19-268 8-635-9-293-17-427-31-520-11-68-21-125 -22-125-1-1-18-13-38-28-49-37-96-154-102-259-5-78-5-78 83 -320 85-236 88-248 110-413 28-220 12-204 307-320 237-93 258-97 289 -50 14 22 15 45 6 207-6 110-16 200-24 225-8 22-40 81-71 130-54 87 -56 91-97 285-39 186-41 204-38 330 4 119 13 177 87 533 265 1288 285 1411 296 1800 3 116 8 237 11 270l5 60 107 39c59 21 110 42 114 45 10 9 153 1006 167 1161 44 510 113 1274 122 1362 9 93 8 126-11 260-29 217-74 445 -125 646-36 138-45 191-45 257l0 84 207 186c115 103 221 201 236 219 43 47 74 105 90 166 13 50 13 67-9 195-19 117-108 477-231 937l-26 96 20 39 19 38-27 135c-38 186-142 471-209 572-49 74-51 75-107 87-31 6-66 11 -78 11-13 0-110 36-216 81-123 51-240 91-319 111-102 25-131 36-157 61-61 58-55 155 18 273 145 235 249 549 274 822 17 176 10 259-31 382-21 61-42 95-121 195-53 66-100 125-104 131-5 6-17 56-28 113-23 117-47 164-101 191-42 21-167 34-216 21z m-979-3997c43-141 67-244 100-419 14-77 28-148 30-158 6-28-38-44-78-28-18 7-57 21-87 30-41 13 -227 117-317 176-2 1 4 39 13 84 15 80 192 570 216 599 14 17 73-119 123 -284z m1971 159c6-10 50-95 97-188 82-163 86-174 93-256 6-85 6-88 -29-161-53-110-171-231-197-201-13 15-52 263-47 296 4 18 2 91-2 162-7 103-5 140 6 180 46 158 55 185 61 185 4 0 12-8 18-17z"/></g>
  </symbol>
  <symbol id="woman-alt" viewBox="0 0 512 512">
    <g transform="translate(0,512) scale(0.1,-0.1)"><path d="M2555 4901c-16-4-39-12-50-18-11-6-38-15-60-20-69-14 -97-75-117-253-9-81-8-141 1-262 9-110 10-162 2-176-13-24-90 -57-154-66-54-8-71-27-83-90-4-22-15-54-25-71-11-17-22-54 -25-81-4-27-15-65-24-84-24-48-26-63-49-250-11-91-18-182 -14-204 8-48 72-175 151-297l60-94-33-132c-33-131-33-135-24 -262 9-131 17-194 44-363 11-72 13-112 5-178-18-158-9-303 20-306 8-1 48-8 88-14 66-11 73-14 69-32-7-24 8-230 24-338 6-41 36-158 66-260 50-171 54-191 50-265-3-54-15-113-37-180-18-55-39-126 -47-158-13-54-12-61 5-90 36-63 133-59 173 7 11 19 19 50 19 78 0 26 5 50 12 54 8 5 10-21 5-105-4-66-3-120 3-131 5-10 28-25 50-34 52 -21 109-8 141 32 23 29 23 16-2 267-5 55-10 114-10 130 1 17 1 64 1 105 1 46 12 124 30 200 53 231 63 313 64 512l1 187 27 6c15 4 29 14 32 23 15 49 48 416 66 722l11 185 30 23c18 14 29 33 29 47 0 14-18 111-40 217-22 106 -40 205-40 220 0 16 20 57 49 100 33 49 50 83 49 103 0 17 9 72 21 123 11 51 23 135 26 185 4 51 11 125 16 165 9 60 8 77-5 104-9 17-16 46-16 63 0 18 -11 58-25 88-22 51-28 57-67 68-57 15-129 52-153 79-17 19-20 42-27 193-10 254-13 279-43 346-28 62-112 153-157 170-40 15-82 19-113 12z m8-820c9-7 17-21 17-30 0-58 108-309 123-285 17 28 17 86 1 137l-17 56 36 113c20 62 39 129 43 148l7 35 18-40c10-22 33-77 50-123 17-45 42-96 56-112 31-38 26-38-37 2-29 18-54 28-59 22-4-5-22-79-39 -164-17-85-39-180-48-210l-17-55-17 40c-10 22-46 125-81 228-58 170-66 187-84 182-11-3-34-8-52-12l-31-5 5 103c4 75 10 109 21 122 15 17 18 13 52-60 20-43 44-84 53-92zm-308-669c9-108-8-203-31 -180-8 8-20 34-27 58-12 40-11 50 7 90 14 33 19 65 18 120-1 74-1 75 13 38 7-20 17-77 20-126zm386-1792c4-19 3-96-3-172-9-113-9-164 5-305 18-173 20-286 7-338-8-36-14-26-35 65-11 52-13 108-9 275 5 145 3 233-6 285-7 41-14 110-17 153l-5 79 28-4c23-2 30-9 35-38z"/></g>
  </symbol>
</svg>
