<?xml version="1.0" encoding="UTF-8"?>
<svg xmlns="http://www.w3.org/2000/svg" style="display: none;">
  <symbol id="seed" viewBox="0 0 1600 1600">
    <g transform="translate(0,1600) scale(0.1,-0.1)" stroke="none"><path d="M10221 15868c-69-297-204-599-422-940-85-134-196-292-510 -728-86-118-197-278-248-354-506-757-736-1394-848-2351-22-188 -25-728-5-875 80-593 308-1001 698-1253 159-103 351-184 563-237 236 -59 454-84 866-100 425-16 532-33 576-88 25-32 22-69-17-296-54 -311-139-577-259-817-52-103-115-208-156-260-28-35-31-36-111 -42-307-20-718-292-878-582-19-33-34-61-35-62-1-1-35 31-76 71-59 58-95 83-170 119-146 71-263 98-449 104-180 6-288-9-422-57 -226-82-415-257-491-453-22-58-22-59-57-53-255 44-440 28-632 -54-226-97-415-293-447-467-9-45-8-47 38-96 72-78 224-211 347 -303 630-473 1472-712 2694-764 129-5 312-10 405-10 94 0 227-7 296 -15 264-31 519-121 656-231 23-19 44-34 48-34 7 0 2535 1459 2549 1471 23 21-84 246-178 373-194 262-481 439-790 487-122 19-342 6-476-29 -128-33-259-84-367-143-79-43-83-44-83-28 0 19-86 184-128 247 -101 147-243 268-419 354-57 28-103 53-103 57 0 4 12 36 26 71 45 111 133 378 179 544 148 537 229 1079 269 1811 9 149 21 374 28 500 7 129 13 457 13 750 0 430-3 550-18 695-74 719-244 1348-616 2278-45 111-81 205-81 209 0 18 323-460 437-647 257-423 425-819 537-1265 179-715 219-1652 126-2950-11-154-23-319-27-367l-6-86 49-9c27-4 105-8 174-7 306 2 578 130 845 399 598 599 924 1771 764 2748-49 298-139 577-279 859-188 378-420 695-765 1047-438 447-812 737-1891 1468-292 197-447 307-582 413-57 44-106 80-110 80-4 0-18-46-31-102z"/><path d="M3695 6724c-16-2-72-9-123-15-301-35-605-129-1122-346 -552-233-2372-1052-2402-1081-7-7 1693-3777 1712-3796 5-5 198 113 447 272 659 421 715 452 900 508 77 24 105 27 228 27 121 0 154-4 239-27 201-54 304-104 1356-651 1680-874 2104-1089 2316-1172 417-164 788 -223 1126-178 294 39 566 147 928 368 85 52 250 152 365 222 268 163 456 281 835 525 1412 909 4249 2788 4537 3004 568 427 747 792 563 1145-101 193-291 342-515 402-119 33-376 33-530 1-209-44-470-144-705-269-58-31 -510-298-1005-593-1088-649-1164-694-1287-760-54-28-98-53-98 -53 0-1 9-31 21-67 24-79 37-273 27-410-29-380-260-685-673-885 -188-92-361-146-625-197-115-22-119-22-1590-25-1290-3-1487-2 -1578 12-477 71-988 330-1517 771-152 127-359 327-325 315 14-5 72-27 130-49 548-209 1112-361 1574-425 160-22 168-22 1596-22 1536 0 1487 -1 1726 51 261 57 442 142 560 263 108 110 143 245 113 431-45 283-261 393 -869 440-74 6-376 15-670 20-579 9-697 18-966 71-402 78-863 239 -1291 450-166 82-206 107-450 286-825 603-1166 836-1563 1065-391 226 -689 333-1020 368-89 9-309 11-375 4z"/></g>
  </symbol>
  <symbol id="seed-alt1" viewBox="0 0 100 100">
    <path d="M30.923,7.952c17.592,13.723,16.728,26.5,5.733,49.673c-2.6-3.144-16.193-15.334-10.434-32.496C30.97,10.982,30.923,7.952,30.923,7.952z"/><path d="M39.983,60.619c0,0,27.776-16.885,51.777,3.274c0,0-23.861,12.148-36.348,3.979C42.928,59.7,39.983,60.619,39.983,60.619z"/><path d="M45.435,49.984c-2.528,3.677-16.5,18.565-37.263,37.975l1.121,4.01c0,0,24.2-28.532,37.117-40.066l-0.007-0.026c1.787-0.164,5.492-0.504,13.193-1.212c18.1-1.662,20.21-17.711,26.045-29.101C54.688,20.708,52.767,28.403,45.435,49.984z"/>
  </symbol>
  <symbol id="seed-alt2" viewBox="0 0 100 100">
    <g transform="translate(0,100) scale(0.1,-0.1)"><path d="M841 951c-48-74-99-113-203-156-105-44-157-89-194-168-38-81-28-164 25-211l22-20 56 57c56 55 57 57 59 119 1 35 7 74 13 88 8 20 10 12 10-47 1-48 5-73 12-73 7 0 31 16 54 35 39 31 43 39 47 90 3 31 9 60 14 65 6 6 8-5 6-30-6-60 12-49 54 33 31 62 36 67 31 36-3-20-15-56-26-80-27-56-27-59 11-48 17 5 34 7 36 5 6-7-55-36-73-36-24 0-127-92-116-103 5-5 32-7 60-6 30 3 46 0 41-5-5-5-41-10-81-11l-71-3-54-53c-30-29-54-56-54-60 0-18 107-59 154-59 226 0 359 357 233 624l-33 69-33-52z"/><path d="M50 506c0-18 104-216 122-232 55-51 97-56 135-18 15 15 29 22 34 17 19-19 47-121 54-196 6-65 10-78 23-75 15 3 16 15 14 84-5 95 16 190 54 247 23 35 25 57 5 57-15 0-64-84-82-140-10-30-18-49-18-42-1 18-50 93-59 89-4-2-27 19-52 47-45 51-33 47 26-7l32-29 7 31c15 69-50 140-146 160-47 10-149 15-149 7z"/></g>
  </symbol>
  <symbol id="delete-button" viewBox="0 0 51.123 51.123">
    <path d="M45.123,0H6C2.691,0,0,2.691,0,6v39.123c0,3.309,2.691,6,6,6h39.123c3.309,0,6-2.691,6-6V6C51.123,2.691,48.431,0,45.123,0zM49.123,45.123c0,2.206-1.794,4-4,4H6c-2.206,0-4-1.794-4-4V6c0-2.206,1.794-4,4-4h39.123c2.206,0,4,1.794,4,4V45.123zM36.791,15.746l-9.815,9.815l9.815,9.815c0.391,0.391,0.391,1.023,0,1.414c-0.195,0.195-0.451,0.293-0.707,0.293s-0.512-0.098-0.707-0.293l-9.815-9.815l-9.815,9.815c-0.195,0.195-0.451,0.293-0.707,0.293s-0.512-0.098-0.707-0.293c-0.391-0.391-0.391-1.023,0-1.414l9.815-9.815l-9.815-9.815c-0.391-0.391-0.391-1.023,0-1.414s1.023-0.391,1.414,0l9.815,9.815l9.815-9.815c0.391-0.391,1.023-0.391,1.414,0S37.181,15.355,36.791,15.746z"></path>
  </symbol>
  <symbol id="phone-handset" viewBox="0 0 181.352 181.352">
    <path d="M169.393,167.37l-14.919,9.848c-9.604,6.614-50.531,14.049-106.211-53.404C-5.415,58.873,9.934,22.86,17.134,14.555L29.523,1.678c2.921-2.491,7.328-2.198,9.839,0.811l32.583,38.543l0.02,0.02c2.384,2.824,2.306,7.22-0.83,9.868v0.029l-14.44,10.415c-5.716,5.667-0.733,14.587,5.11,23.204l27.786,32.808c12.926,12.477,20.009,18.241,26.194,14.118l12.008-13.395c2.941-2.472,7.328-2.169,9.839,0.821l32.603,38.543v0.02C172.607,160.316,172.519,164.703,169.393,167.37z"/>
  </symbol>
  <symbol id="phone-mobile" viewBox="0 0 642 1280">
    <g transform="translate(0,1280) scale(0.1,-0.1)"><path d="M2010 12790 c-540-14-1107-46-1325-75-337-46-571-161-656-325 l-24-45 5-625 c6-821 6-2731 0-7375 l-4-3810 22-65 c88-266 343-371 1017-420 77-6 593-19 1147-29 981-18 1033-18 2015 0 554 10 1073 23 1153 29 486 36 749 106 890 236 67 63 104 127 126 220 15 63 15 472 9 4967l-8 4897 22 0 21 0 0 409 c0 367-2 410-16 413-14 3-16 58-15 573 l2 570-31 62 c-70 140-250 240-533 298-165 33-504 59-1112 86-307 13-2279 20-2705 9z m4110-6060 l0-4610-2935 0-2935 0 0 4610 0 4610 2935 0 2935 0 0-4610z"/></g>
  </symbol>
  <symbol id="phone-mobile-alt" viewBox="0 0 706 1280">
    <g transform="translate(0,1280) scale(0.1,-0.1)"><path d="M835 12793 c-16-2-61-13-100-25-307-90-544-368-638-748-20-81-21-116-24-792-3-462-7-708-14-708-5 0-21-12-34-26l-25-27 0-229 0-229 25-24 c13-14 29-25 35-25 6 0 10-72 10-213 l0-214-24-12 c-44-24-46-43-46-417 l0-355 25-24 c13-14 29-25 35-25 6 0 10-51 10-145 0-94-4-145-10-145-6 0-22-11-35-25 l-25-24 0-355 c0-374 2-393 46-417 l24-12 3-3356 c3-3127 4-3361 20-3424 100-400 328-671 647-769 l75-23 2665-3 c2370-2 2674-1 2742 13 165 33 305 112 429 242 171 180 271 405 299 674 7 68 10 1352 10 3935 l0 3834 25 0 c14 0 37 11 50 25 l25 24 0 356 c0 252-3 363-12 378-16 30-39 46-65 47 l-23 0 0 1119 c0 703-4 1157-10 1220-15 144-51 276-110 398-107 225-280 397-477 478-145 58 32 55-2855 54-1454-1-2656-4-2673-6z m2748-291 c20-20 27-39 27-66 0-48-13-72-52-92-85-44-178 49-134 134 20 40 41 51 92 52 31 0 46-6 67-28z m-1352-408 c37-35 46-82 25-126-40-85-159-89-201-8-59 115 83 223 176 134z m2019-53 c15-29 12-62-7-83-15-17-51-18-711-18-633 0-697 1-714 17-20 18-23 54-8 84 10 19 29 19 720 19 691 0 710 0 720-19z m2540-5641 l0-4960-3280 0-3280 0 0 4960 0 4960 3280 0 3280 0 0-4960z m-3145-5212 c115-29 250-137 307-244 122-227 48-517-165-655-97-63-170-82-295-77-99 3-113 6-185 40-186 89-290 253-290 458 1 148 47 255 156 357 82 77 171 120 282 136 39 6 140-2 190-15z"/></g>
  </symbol>
  <symbol id="phone-iphone" viewBox="0 0 500 500">
    <path d="M366.1,123.2h0.2c1,0,1.8,0.3,2.4,0.8c0.5,0.5,0.8,1.3,0.8,2.4v47.4c0,0.9-0.3,1.6-0.8,2.1c-0.5,0.5-1.3,0.8-2.4,0.8h-0.2v272.5c0,10-3.5,18.5-10.5,25.5c-7,7-15.5,10.5-25.5,10.5h-161c-9.9,0-18.3-3.5-25.3-10.5c-7-7-10.5-15.5-10.5-25.5V188.6c-0.8,0-1.4-0.2-1.9-0.7c-0.5-0.4-0.8-1.1-0.8-2v-27.7c0-0.7,0.3-1.4,0.8-2c0.5-0.6,1.2-0.9,1.9-0.9V145h-0.2c-0.8,0-1.4-0.3-1.9-0.9c-0.5-0.6-0.8-1.2-0.8-1.8v-27c0-0.9,0.3-1.6,0.8-2.2c0.5-0.6,1.2-0.9,1.9-0.9h0.2V96.4H133c-0.4,0-0.8-0.1-1-0.3c-0.2-0.2-0.3-0.6-0.3-1.2V80.5c0-0.6,0.1-1,0.3-1.3c0.2-0.3,0.6-0.4,1-0.4h0.4V50.8c0-10,3.5-18.5,10.5-25.5s15.4-10.5,25.3-10.5h161c10,0,18.5,3.5,25.5,10.5c7,7,10.5,15.5,10.5,25.5V123.2z M307.9,33c0,3.1-1.2,5.8-3.7,8c-2.5,2.2-5.4,3.3-8.7,3.3h-90.8c-3.6,0-6.6-1.1-9-3.3c-2.4-2.2-3.6-4.8-3.6-8v-4.3h-22.7c-6.1,0-11.4,2.2-15.7,6.5c-4.3,4.3-6.5,9.6-6.5,15.7v398.4c0,6.1,2.2,11.4,6.5,15.9c4.3,4.4,9.6,6.6,15.7,6.6h160.3c6.1,0,11.4-2.2,15.7-6.6c4.3-4.4,6.5-9.7,6.5-15.9V51c0-6.1-2.2-11.4-6.5-15.7c-4.3-4.3-9.6-6.5-15.7-6.5h-21.8V33z M263,35.2c0.4-0.2,0.6-0.7,0.6-1.5c0-0.3-0.2-0.6-0.6-0.9c-0.4-0.3-0.7-0.4-1-0.4H238c-0.6,0-1,0.2-1.2,0.4c-0.2,0.3-0.3,0.6-0.3,0.9c0,0.8,0.1,1.2,0.3,1.5c0.2,0.2,0.6,0.3,1.2,0.3H262C262.3,35.5,262.7,35.4,263,35.2z M271.9,31.6c-0.6,0.7-0.9,1.4-0.9,2.1c0,1.1,0.3,1.9,0.9,2.5c0.6,0.6,1.4,0.9,2.5,0.9c0.7,0,1.5-0.3,2.2-0.9c0.7-0.6,1.1-1.4,1.1-2.5c0-0.7-0.4-1.5-1.1-2.1c-0.8-0.7-1.5-1-2.2-1C273.3,30.6,272.5,30.9,271.9,31.6z"/>
  </symbol>
  <symbol id="phone-fax" viewBox="0 0 456 456">
    <rect x="228" y="40" width="16" height="16"/><rect x="260" y="40" width="112" height="16"/><rect x="228" y="72" width="144" height="16"/><rect x="228" y="104" width="144" height="16"/><rect x="228" y="136" width="144" height="16"/><rect x="228" y="168" width="144" height="16"/><path d="M428,168h-16V8c0-4.418-3.582-8-8-8H196c-4.418,0-8,3.582-8,8v160h-32v-4.688c-0.022-19.493-15.819-35.29-35.312-35.312H79.312c-19.493,0.022-35.29,15.819-35.312,35.312V168H28c-13.255,0-24,10.745-24,24v240c0,13.255,10.745,24,24,24h400c13.255,0,24-10.745,24-24V192C452,178.745,441.255,168,428,168z M204,16h192v192H204V16z M60,163.312c0.013-10.66,8.652-19.299,19.312-19.312h41.376c10.66,0.013,19.299,8.652,19.312,19.312v41.376c0.013,5.124-2.024,10.041-5.656,13.656c-6.645,6.607-10.37,15.598-10.344,24.968v57.376c-0.026,9.37,3.699,18.361,10.344,24.968c3.632,3.615,5.669,8.532,5.656,13.656v41.376c-0.013,10.66-8.652,19.299-19.312,19.312H79.312c-10.66-0.013-19.299-8.652-19.312-19.312v-41.376c-0.013-5.124,2.024-10.041,5.656-13.656c6.645-6.607,10.37-15.598,10.344-24.968v-57.376c0.026-9.37-3.699-18.361-10.344-24.968c-3.632-3.615-5.669-8.532-5.656-13.656V163.312z M436,432c0,4.418-3.582,8-8,8H28c-4.418,0-8-3.582-8-8V192c0-4.418,3.582-8,8-8h16v20.688c-0.026,9.37,3.699,18.361,10.344,24.968c3.632,3.615,5.669,8.532,5.656,13.656v57.376c0.013,5.124-2.024,10.041-5.656,13.656c-6.645,6.607-10.37,15.598-10.344,24.968v41.376c0.022,19.493,15.819,35.29,35.312,35.312h41.376c19.493-0.022,35.29-15.819,35.312-35.312v-41.376c0.026-9.37-3.699-18.361-10.344-24.968c-3.632-3.615-5.669-8.532-5.656-13.656v-57.376c-0.013-5.124,2.024-10.041,5.656-13.656c6.645-6.607,10.37-15.598,10.344-24.968V184h32v32c0,4.418,3.582,8,8,8h208c4.418,0,8-3.582,8-8v-32h16c4.418,0,8,3.582,8,8V432z"/><path d="M388,248H212c-4.418,0-8,3.582-8,8v48c0,4.418,3.582,8,8,8h176c4.418,0,8-3.582,8-8v-48C396,251.582,392.418,248,388,248zM380,296H220v-32h160V296z"/><rect x="220" y="336" width="16" height="16"/><rect x="220" y="368" width="16" height="16"/><rect x="220" y="400" width="16" height="16"/><rect x="252" y="336" width="16" height="16"/><rect x="252" y="368" width="16" height="16"/><rect x="252" y="400" width="16" height="16"/><rect x="284" y="336" width="16" height="16"/><rect x="284" y="368" width="16" height="16"/><rect x="284" y="400" width="16" height="16"/><path d="M372,336h-48c-4.418,0-8,3.582-8,8v32c0,4.418,3.582,8,8,8h48c4.418,0,8-3.582,8-8v-32C380,339.582,376.418,336,372,336zM364,368h-32v-16h32V368z"/><rect x="316" y="400" width="64" height="16"/>
  </symbol>
  <symbol id="phone-fax-alt" viewBox="0 0 512 512">
    <path d="M464,128h-64c-26.51,0-48,21.49-48,48v16h-32V0H137.376L32,105.376V192H0v256c0,35.346,28.654,64,64,64h400c26.51,0,48-21.49,48-48V176C512,149.49,490.51,128,464,128z M128,54.624V96H86.624L128,54.624z M64,128h96V32h128v160H64V128zM352,480H64c-17.673,0-32-14.327-32-32V224h320V480z M480,464c0,8.837-7.163,16-16,16h-80V176c0-8.837,7.163-16,16-16h64c8.837,0,16,7.163,16,16V464z"/><rect x="80" y="256" width="224" height="32"/><rect x="80" y="320" width="32" height="32"/><rect x="144" y="320" width="32" height="32"/><rect x="208" y="320" width="32" height="32"/><rect x="272" y="320" width="32" height="32"/><rect x="80" y="384" width="32" height="32"/><rect x="144" y="384" width="32" height="32"/><rect x="208" y="384" width="32" height="32"/><rect x="272" y="384" width="32" height="32"/>
  </symbol>
  <symbol id="fax" viewBox="0 0 1025 1024">
    <path d="M1001.841447 419.308868H951.241112c-12.564417 0-22.844395 10.279978-22.844395 22.844395s10.279978 22.844395 22.844395 22.844395h27.75594v347.463246h-78.69894v-124.501953c0-12.564417-10.279978-22.844395-22.844395-22.844394h-735.589515c-12.564417 0-22.844395 10.279978-22.844395 22.844394v124.501953H45.6893V464.997658h831.764417c11.193753 0 20.445733-7.995538 22.387507-18.618182 0.342666-1.71333 0.57111-3.426659 0.57111-5.139989V190.065365C900.412334 85.209593 815.088519 0 710.346968 0H143.46331c-13.478193 0-24.329281 10.96531-24.329281 24.329281V419.308868H22.844905c-12.564417 0-22.844395 10.279978-22.844395 22.844395v393.152035c0 12.564417 10.279978 22.844395 22.844395 22.844395h96.174902v143.005912c0 12.564417 10.279978 22.844395 22.844395 22.844395h735.589515c12.564417 0 22.844395-10.279978 22.844395-22.844395V858.149693h101.543335c12.564417 0 22.844395-10.279978 22.844395-22.844395V442.153263c0-12.564417-10.165756-22.844395-22.844395-22.844395zM854.837766 190.065365v8.795092H708.976305V45.68879h1.370663c79.726938 0 144.490798 64.763859 144.490798 144.376575zM164.708597 45.68879h498.578918v174.988064c0 13.135527 10.736866 23.872393 23.872393 23.872393h167.677858v174.759621H164.708597V45.68879z m689.900725 932.736642h-689.900725v-138.208589c0.342666-1.599108 0.57111-3.198215 0.57111-4.911545s-0.228444-3.312437-0.57111-4.911545V710.803346h689.900725v267.622086z"/>
  </symbol>
  <symbol id="fax-alt1" viewBox="0 0 122.88 114.13">
    <path d="M23.2,29.44V3.35V0.53C23.2,0.24,23.44,0,23.73,0h2.82h54.99c0.09,0,0.17,0.02,0.24,0.06l1.93,0.8l-0.2,0.49l0.2-0.49 c0.08,0.03,0.14,0.08,0.2,0.14l12.93,12.76l0.84,0.83l-0.37,0.38l0.37-0.38c0.1,0.1,0.16,0.24,0.16,0.38v1.18v13.31 c0,0.29-0.24,0.53-0.53,0.53h-5.61c-0.29,0-0.53-0.24-0.53-0.53v-6.88H79.12H76.3c-0.29,0-0.53-0.24-0.53-0.53 c0-0.02,0-0.03,0-0.05v-2.77h0V6.69H29.89v22.75c0,0.29-0.24,0.53-0.53,0.53h-5.64C23.44,29.97,23.2,29.73,23.2,29.44L23.2,29.44z M30.96,67.85h60.97h0c0.04,0,0.08,0,0.12,0.01c0.83,0.02,1.63,0.19,2.36,0.49c0.79,0.33,1.51,0.81,2.11,1.41 c0.59,0.59,1.07,1.31,1.4,2.1c0.3,0.73,0.47,1.52,0.49,2.35c0.01,0.04,0.01,0.08,0.01,0.12v0v9.24h13.16h0c0.04,0,0.07,0,0.11,0.01 c0.57-0.01,1.13-0.14,1.64-0.35c0.57-0.24,1.08-0.59,1.51-1.02c0.43-0.43,0.78-0.94,1.02-1.51c0.21-0.51,0.34-1.07,0.35-1.65 c-0.01-0.03-0.01-0.07-0.01-0.1v0V43.55v0c0-0.04,0-0.07,0.01-0.11c-0.01-0.57-0.14-1.13-0.35-1.64c-0.24-0.56-0.59-1.08-1.02-1.51 c-0.43-0.43-0.94-0.78-1.51-1.02c-0.51-0.22-1.07-0.34-1.65-0.35c-0.03,0.01-0.07,0.01-0.1,0.01h0H11.31h0 c-0.04,0-0.08,0-0.11-0.01c-0.57,0.01-1.13,0.14-1.64,0.35C9,39.51,8.48,39.86,8.05,40.29c-0.43,0.43-0.78,0.94-1.02,1.51 c-0.21,0.51-0.34,1.07-0.35,1.65c0.01,0.03,0.01,0.07,0.01,0.1v0v35.41v0c0,0.04,0,0.08-0.01,0.11c0.01,0.57,0.14,1.13,0.35,1.64 c0.24,0.57,0.59,1.08,1.02,1.51C8.48,82.65,9,83,9.56,83.24c0.51,0.22,1.07,0.34,1.65,0.35c0.03-0.01,0.07-0.01,0.1-0.01h0h13.16 v-9.24v0c0-0.04,0-0.08,0.01-0.12c0.02-0.83,0.19-1.63,0.49-2.35c0.31-0.76,0.77-1.45,1.33-2.03c0.02-0.03,0.04-0.06,0.07-0.08 c0.59-0.59,1.31-1.07,2.1-1.4c0.73-0.3,1.52-0.47,2.36-0.49C30.87,67.85,30.91,67.85,30.96,67.85L30.96,67.85L30.96,67.85z M98.41,90.27v17.37v0c0,0.04,0,0.08-0.01,0.12c-0.02,0.83-0.19,1.63-0.49,2.36c-0.33,0.79-0.81,1.51-1.41,2.11 c-0.59,0.59-1.31,1.07-2.1,1.4c-0.73,0.3-1.52,0.47-2.35,0.49c-0.04,0.01-0.08,0.01-0.12,0.01h0H30.96h0 c-0.04,0-0.08-0.01-0.12-0.01c-0.83-0.02-1.62-0.19-2.35-0.49c-0.79-0.33-1.5-0.81-2.1-1.4c-0.6-0.6-1.08-1.31-1.41-2.11 c-0.3-0.73-0.47-1.52-0.49-2.35c-0.01-0.04-0.01-0.08-0.01-0.12v0V90.27H11.31h0c-0.04,0-0.08,0-0.12-0.01 c-1.49-0.02-2.91-0.32-4.2-0.85c-1.39-0.57-2.63-1.41-3.67-2.45c-1.04-1.04-1.88-2.28-2.45-3.67c-0.54-1.3-0.84-2.71-0.85-4.2 C0,79.04,0,79,0,78.96v0V43.55v0c0-0.04,0-0.08,0.01-0.12c0.02-1.49,0.32-2.9,0.85-4.2c0.57-1.39,1.41-2.63,2.45-3.67 c1.04-1.04,2.28-1.88,3.67-2.45c1.3-0.54,2.71-0.84,4.2-0.85c0.04-0.01,0.08-0.01,0.12-0.01h0h100.25h0c0.04,0,0.08,0,0.12,0.01 c1.49,0.02,2.91,0.32,4.2,0.85c1.39,0.57,2.63,1.41,3.67,2.45c1.04,1.04,1.88,2.28,2.45,3.67c0.54,1.3,0.84,2.71,0.85,4.2 c0.01,0.04,0.01,0.08,0.01,0.12v0v35.41v0c0,0.04,0,0.08-0.01,0.12c-0.02,1.49-0.32,2.9-0.85,4.2c-0.57,1.39-1.41,2.63-2.45,3.67 c-1.04,1.04-2.28,1.88-3.67,2.45c-1.3,0.54-2.71,0.84-4.2,0.85c-0.04,0.01-0.08,0.01-0.12,0.01h0H98.41L98.41,90.27z M89.47,15.86 l-7-6.91v6.91H89.47L89.47,15.86z M91.72,74.54H31.16v32.89h60.56V74.54L91.72,74.54z"/>
  </symbol>
  <symbol id="fax-alt2" viewBox="0 0 512 512">
    <rect x="192" y="416" width="128" height="32"/><rect x="192" y="352" width="128" height="32"/><path d="M480,128h-64V64h-32V0h-32H160h-32v64H96v64H32c-17.672,0-32,14.344-32,32v160c0,17.688,14.328,32,32,32h96v160h32h192h32V352h96c17.688,0,32-14.313,32-32V160C512,142.344,497.688,128,480,128z M352,352v32v96H160v-96v-32v-96h192V352z M352,128H160V32h192V128z M400,224c-8.844,0-16-7.156-16-16s7.156-16,16-16s16,7.156,16,16S408.844,224,400,224z M464,224c-8.844,0-16-7.156-16-16s7.156-16,16-16s16,7.156,16,16S472.844,224,464,224z"/>
  </symbol>
  <symbol id="envelope" viewBox="0 0 122.879 88.855">
    <path d="M7.048,0h108.784c1.939,0,3.701,0.794,4.977,2.069c1.277,1.277,2.07,3.042,2.07,4.979v74.759 c0,1.461-0.451,2.822-1.221,3.951c-0.141,0.365-0.361,0.705-0.662,0.994c-0.201,0.189-0.422,0.344-0.656,0.461 c-1.225,1.021-2.799,1.643-4.508,1.643H7.048c-1.937,0-3.701-0.793-4.979-2.07C0.794,85.51,0,83.748,0,81.807V7.048 c0-1.941,0.792-3.704,2.068-4.979C3.344,0.792,5.107,0,7.048,0L7.048,0z M5.406,78.842l38.124-38.22L5.406,9.538V78.842 L5.406,78.842z M47.729,44.045L8.424,83.449h105.701L76.563,44.051L64.18,54.602l0,0c-0.971,0.83-2.425,0.877-3.453,0.043 L47.729,44.045L47.729,44.045z M80.674,40.549l36.799,38.598V9.198L80.674,40.549L80.674,40.549z M8.867,5.406l53.521,43.639 l51.223-43.639H8.867L8.867,5.406z"/>
  </symbol>
  <symbol id="location" viewBox="0 0 24 24">
    <path d="M12 0c-4.198 0-8 3.403-8 7.602 0 4.198 3.469 9.21 8 16.398 4.531-7.188 8-12.2 8-16.398 0-4.199-3.801-7.602-8-7.602zm0 11c-1.657 0-3-1.343-3-3s1.343-3 3-3 3 1.343 3 3-1.343 3-3 3z"/>
  </symbol>
  <symbol id="location-alt" viewBox="0 0 24 24">
    <path d="M12 0c-3.148 0-6 2.553-6 5.702 0 3.148 2.602 6.907 6 12.298 3.398-5.391 6-9.15 6-12.298 0-3.149-2.851-5.702-6-5.702zm0 8c-1.105 0-2-.895-2-2s.895-2 2-2 2 .895 2 2-.895 2-2 2zm8 12c0 2.209-3.581 4-8 4s-8-1.791-8-4c0-1.602 1.888-2.98 4.608-3.619l1.154 1.824c-.401.068-.806.135-1.178.242-3.312.949-3.453 2.109-.021 3.102 2.088.603 4.777.605 6.874-.001 3.619-1.047 3.164-2.275-.268-3.167-.296-.077-.621-.118-.936-.171l1.156-1.828c2.723.638 4.611 2.016 4.611 3.618z"/>
  </symbol>
  <symbol id="gotoweb" viewBox="0 0 57.132 57.132">
    <path d="M53.707,41.526c2.113-4.032,3.234-8.57,3.234-13.151C56.941,12.729,44.212,0,28.566,0S0.191,12.729,0.191,28.375S12.919,56.75,28.566,56.75c4.376,0,8.56-0.976,12.452-2.882l2.699,2.699c0.365,0.364,0.851,0.564,1.367,0.564s1.002-0.2,1.367-0.565l9.79-9.791c0.364-0.364,0.565-0.85,0.565-1.367c0-0.518-0.201-1.003-0.565-1.367L53.707,41.526zM49.056,36.91c1.683-0.519,3.349-1.103,4.99-1.748c-0.447,1.685-1.063,3.32-1.833,4.881L49.056,36.91z M48.06,26.289c-0.21-0.508-0.729-0.812-1.39-0.812h-6.71c-0.081-1.851-0.228-3.694-0.454-5.522c5.067,0.84,10.076,2.249,14.938,4.264c0.056,0.023,0.114,0.022,0.172,0.034c0.212,1.344,0.324,2.72,0.324,4.122c0,1.503-0.138,2.999-0.391,4.474c-0.035,0.01-0.071,0.006-0.105,0.02c-2.275,0.942-4.626,1.767-6.988,2.454L43.8,31.695l3.851-3.85C48.118,27.378,48.27,26.797,48.06,26.289z M25.153,27.411v10.508c-1.84-0.093-3.67-0.253-5.486-0.493c-0.792-5.905-0.791-11.873,0.002-17.778c5.904-0.793,11.871-0.794,17.776-0.002c0.255,1.93,0.425,3.875,0.514,5.833H27.086C26.02,25.477,25.153,26.344,25.153,27.411z M2.578,32.848c-0.25-1.455-0.387-2.948-0.387-4.473c0-1.402,0.112-2.779,0.324-4.122c0.057-0.013,0.116-0.01,0.172-0.034c4.859-2.013,9.864-3.421,14.928-4.262c-0.718,5.702-0.718,11.457-0.002,17.159c-5.109-0.837-10.105-2.25-14.926-4.247C2.651,32.854,2.614,32.858,2.578,32.848z M54.148,21.961c-4.876-1.929-9.882-3.297-14.946-4.089c-0.796-5.146-2.168-10.182-4.107-15.052C44.44,5.208,51.801,12.601,54.148,21.961zM32.83,2.35c0.007,0.106,0.019,0.212,0.062,0.315c1.997,4.822,3.412,9.818,4.249,14.926c-5.703-0.717-11.458-0.716-17.161,0.002c0.841-5.063,2.249-10.068,4.262-14.927c0.043-0.103,0.055-0.21,0.062-0.315C25.691,2.123,27.114,2,28.566,2S31.441,2.123,32.83,2.35z M22.038,2.819c-1.955,4.911-3.339,9.955-4.139,15.058c-5.054,0.793-10.05,2.159-14.916,4.084C5.331,12.6,12.693,5.207,22.038,2.819zM3.082,35.168c4.795,1.887,9.749,3.229,14.811,4.012c0.779,4.983,2.119,9.91,3.999,14.713C12.743,51.498,5.519,44.301,3.082,35.168z M24.227,54.387c-2.007-4.853-3.412-9.85-4.25-14.906c1.715,0.212,3.441,0.355,5.176,0.44v7.074c0,1.018,0.664,1.482,1.28,1.482c0.268,0,0.672-0.087,1.087-0.502l3.756-3.85l3.894,3.894c-0.65,2.157-1.409,4.3-2.266,6.372c-1.42,0.234-2.866,0.358-4.337,0.358C27.088,54.75,25.639,54.622,24.227,54.387z M35.236,53.894c0.552-1.411,1.059-2.842,1.519-4.289l2.762,2.762C38.127,53.004,36.699,53.513,35.236,53.894z M45.084,55.106L32.69,42.711c-0.364-0.365-0.85-0.565-1.367-0.565s-1.003,0.201-1.367,0.565l-2.808,2.808l-0.062-18.042l18.103,0l-2.804,2.804c-0.752,0.753-0.752,1.979,0.001,2.733l12.441,12.347L45.084,55.106z"/>
  </symbol>
</svg>
