<svg xmlns="http://www.w3.org/2000/svg" viewBox="0 0 100 100">
  <g transform="translate(0,100) scale(0.1,-0.1)"><path d="M841 951c-48-74-99-113-203-156-105-44-157-89-194-168-38-81-28-164 25-211l22-20 56 57c56 55 57 57 59 119 1 35 7 74 13 88 8 20 10 12 10-47 1-48 5-73 12-73 7 0 31 16 54 35 39 31 43 39 47 90 3 31 9 60 14 65 6 6 8-5 6-30-6-60 12-49 54 33 31 62 36 67 31 36-3-20-15-56-26-80-27-56-27-59 11-48 17 5 34 7 36 5 6-7-55-36-73-36-24 0-127-92-116-103 5-5 32-7 60-6 30 3 46 0 41-5-5-5-41-10-81-11l-71-3-54-53c-30-29-54-56-54-60 0-18 107-59 154-59 226 0 359 357 233 624l-33 69-33-52z"/><path d="M50 506c0-18 104-216 122-232 55-51 97-56 135-18 15 15 29 22 34 17 19-19 47-121 54-196 6-65 10-78 23-75 15 3 16 15 14 84-5 95 16 190 54 247 23 35 25 57 5 57-15 0-64-84-82-140-10-30-18-49-18-42-1 18-50 93-59 89-4-2-27 19-52 47-45 51-33 47 26-7l32-29 7 31c15 69-50 140-146 160-47 10-149 15-149 7z"/></g>
</svg>
